<?xml version="1.0" encoding="UTF-8"?>
<svg version="1.1" xmlns="http://www.w3.org/2000/svg" width="502" height="385">
<path d="M0 0 C165.66 0 331.32 0 502 0 C502 127.05 502 254.1 502 385 C336.34 385 170.68 385 0 385 C0 257.95 0 130.9 0 0 Z " fill="#FEFEFE" transform="translate(0,0)"/>
<path d="M0 0 C0.88429688 0.37382813 1.76859375 0.74765625 2.6796875 1.1328125 C16.87295852 7.64704935 26.55432062 18.4163056 32 33 C32.3196875 33.83917969 32.639375 34.67835937 32.96875 35.54296875 C35.69996427 43.90099021 35.27479525 52.31850551 35 61 C34.67 61 34.34 61 34 61 C33.67128906 59.31583984 33.67128906 59.31583984 33.3359375 57.59765625 C30.46669473 43.73145604 26.0114166 35.00761107 14 27 C13.01 27 12.02 27 11 27 C11.56589844 27.45890625 12.13179687 27.9178125 12.71484375 28.390625 C13.44832031 29.00421875 14.18179688 29.6178125 14.9375 30.25 C16.03384766 31.15492187 16.03384766 31.15492187 17.15234375 32.078125 C19.10326334 34.10741134 19.61731779 35.254407 20 38 C19.39671875 37.79503906 18.7934375 37.59007812 18.171875 37.37890625 C17.37265625 37.10949219 16.5734375 36.84007812 15.75 36.5625 C14.96109375 36.29566406 14.1721875 36.02882812 13.359375 35.75390625 C12.58078125 35.50511719 11.8021875 35.25632813 11 35 C10.40058594 34.80792969 9.80117187 34.61585937 9.18359375 34.41796875 C-0.7988934 32.50718856 -11.90614694 33.05413552 -20.515625 38.62890625 C-26.72294186 43.22863955 -31.0462749 48.40032041 -35 55 C-35.46148437 55.74636719 -35.92296875 56.49273437 -36.3984375 57.26171875 C-40.70396723 64.94643697 -42.226338 73.45867794 -44 82 C-42.9171875 82.41958984 -42.9171875 82.41958984 -41.8125 82.84765625 C-39.14324982 83.94130737 -36.59010951 85.17008361 -34 86.4375 C-8.15326415 98.02396779 19.15248739 91.1093105 44.44873047 81.91308594 C70.55200547 72.5708612 96.78718717 70.20297501 122.375 82.1875 C144.2443025 93.95150053 163.60695262 115.45483129 172.125 139 C174.94201522 150.98252126 173.85189002 163.16371119 168 174 C163.3978665 181.28849514 157.95511859 186.52286563 149.67578125 189.46484375 C145.90390245 190.21921951 142.21410159 190.29120124 138.375 190.3125 C137.64627686 190.31797852 136.91755371 190.32345703 136.16674805 190.32910156 C131.7467705 190.27069885 128.16306447 189.64815328 124 188 C124 187.67 124 187.34 124 187 C125.02480469 186.96261719 126.04960937 186.92523438 127.10546875 186.88671875 C128.46618062 186.82102921 129.82685611 186.75458291 131.1875 186.6875 C131.86103516 186.66494141 132.53457031 186.64238281 133.22851562 186.61914062 C137.59065637 186.38507454 140.64852159 185.87357107 144 183 C147.75877573 174.86923437 146.9359306 164.6548058 144.03515625 156.34375 C138.97073943 144.87714588 131.2592458 139.62348402 119.9296875 134.98046875 C112.62412195 132.53553948 104.60160829 131.76753032 97 133 C92.60990055 135.32073167 89.42540114 138.43719022 86 142 C85.49694336 142.51916992 84.99388672 143.03833984 84.47558594 143.57324219 C80.88790668 147.29865279 77.42107436 151.12166608 74 155 C73.3296875 155.75667969 72.659375 156.51335937 71.96875 157.29296875 C69.58442331 160.00784982 67.22221282 162.74068376 64.87109375 165.484375 C64.15050781 166.31453125 63.42992187 167.1446875 62.6875 168 C61.70330078 169.1446875 61.70330078 169.1446875 60.69921875 170.3125 C59 172 59 172 57 172 C57 172.66 57 173.32 57 174 C49.76181148 179.81365142 41.73683373 183.9625013 33 187 C32.30608154 187.25894043 31.61216309 187.51788086 30.8972168 187.78466797 C23.62782133 190.27775249 16.7037774 190.5372181 9.0625 190.5 C7.79011475 190.49790527 6.51772949 190.49581055 5.20678711 190.49365234 C-5.50003615 190.31636689 -14.92399064 188.48906935 -25 185 C-26.15628906 184.61585938 -27.31257813 184.23171875 -28.50390625 183.8359375 C-29.32761719 183.56007813 -30.15132813 183.28421875 -31 183 C-13.59424974 193.42228815 2.70359534 200.62488108 23.375 200.4375 C25.14762207 200.42614014 25.14762207 200.42614014 26.95605469 200.41455078 C39.7853824 200.17292061 50.55198953 196.92555188 62.25683594 191.84326172 C63.8158651 191.1749245 65.40618865 190.58052731 67 190 C67.66 190.33 68.32 190.66 69 191 C45.9818373 205.04436234 20.46501479 213.69230318 -6.6875 213.4375 C-7.3814386 213.43445862 -8.0753772 213.43141724 -8.79034424 213.42828369 C-20.55160963 213.35245674 -31.66869078 212.27035822 -43 209 C-43.77472656 208.78037598 -44.54945313 208.56075195 -45.34765625 208.33447266 C-69.80843555 201.21686945 -92.18586818 187.97938082 -105.00830078 165.20947266 C-114.38543583 148.01733719 -118.43479787 131.21414569 -118.375 111.625 C-118.37412384 110.92235016 -118.37324768 110.21970032 -118.37234497 109.49575806 C-118.23127052 75.06138828 -106.24971249 45.18460255 -82 20.625 C-61.04559398 -0.03533857 -28.53498897 -12.72843531 0 0 Z " fill="#4B4B4B" transform="translate(229,84)"/>
<path d="M0 0 C0.88429688 0.37382813 1.76859375 0.74765625 2.6796875 1.1328125 C16.87295852 7.64704935 26.55432062 18.4163056 32 33 C32.3196875 33.83917969 32.639375 34.67835937 32.96875 35.54296875 C35.69996427 43.90099021 35.27479525 52.31850551 35 61 C34.67 61 34.34 61 34 61 C33.78085937 59.87722656 33.56171875 58.75445312 33.3359375 57.59765625 C30.46669473 43.73145604 26.0114166 35.00761107 14 27 C13.01 27 12.02 27 11 27 C11.56589844 27.45890625 12.13179688 27.9178125 12.71484375 28.390625 C13.44832031 29.00421875 14.18179688 29.6178125 14.9375 30.25 C16.03384766 31.15492187 16.03384766 31.15492187 17.15234375 32.078125 C19.10326334 34.10741134 19.61731779 35.254407 20 38 C19.39671875 37.79503906 18.7934375 37.59007812 18.171875 37.37890625 C17.37265625 37.10949219 16.5734375 36.84007812 15.75 36.5625 C14.96109375 36.29566406 14.1721875 36.02882812 13.359375 35.75390625 C12.58078125 35.50511719 11.8021875 35.25632813 11 35 C10.40058594 34.80792969 9.80117187 34.61585937 9.18359375 34.41796875 C-0.7988934 32.50718856 -11.90614694 33.05413552 -20.515625 38.62890625 C-32.11655559 47.22540421 -39.0646632 59.75423881 -42.32421875 73.65234375 C-43 76 -43 76 -45 79 C-48 79 -48 79 -50.6875 76.625 C-53 74 -53 74 -53 72 C-53.66 72 -54.32 72 -55 72 C-55 71.34 -55 70.68 -55 70 C-55.66 70 -56.32 70 -57 70 C-57 69.34 -57 68.68 -57 68 C-58.485 67.505 -58.485 67.505 -60 67 C-70.50545804 52.89205429 -75.46047649 36.59015063 -74 19 C-72.38302702 13.15194772 -68.712965 8.76969326 -63.50390625 5.8046875 C-62.19980442 5.14201254 -60.88535554 4.49939803 -59.5625 3.875 C-58.85222656 3.53662109 -58.14195312 3.19824219 -57.41015625 2.84960938 C-39.74261829 -5.33740152 -18.3028526 -8.1642462 0 0 Z " fill="#282828" transform="translate(229,84)"/>
<path d="M0 0 C0.66 0.33 1.32 0.66 2 1 C-15.88691057 11.48279823 -15.88691057 11.48279823 -21 13 C-23.13093906 11.93453047 -24.36587557 10.70840281 -26 9 C-25.06994141 8.77957031 -25.06994141 8.77957031 -24.12109375 8.5546875 C-17.46498521 6.86886088 -11.24536392 4.60796173 -4.95288086 1.89404297 C-3.32390701 1.20795701 -1.66358412 0.5972919 0 0 Z " fill="#757575" transform="translate(296,274)"/>
<path d="M0 0 C0.66 0.66 1.32 1.32 2 2 C1.34 2 0.68 2 0 2 C0 2.66 0 3.32 0 4 C1.32 4.66 2.64 5.32 4 6 C1.29139335 6.05429278 -1.41610901 6.09381211 -4.125 6.125 C-4.88554687 6.14175781 -5.64609375 6.15851563 -6.4296875 6.17578125 C-11.03270731 6.21546246 -14.66464004 5.75907577 -19 4 C-19 3.67 -19 3.34 -19 3 C-17.96359375 2.95101563 -16.9271875 2.90203125 -15.859375 2.8515625 C-14.48955792 2.77650403 -13.11976752 2.70095753 -11.75 2.625 C-11.06808594 2.5940625 -10.38617188 2.563125 -9.68359375 2.53125 C-6.01260962 2.31740626 -3.13748384 1.98922945 0 0 Z " fill="#6E6E6E" transform="translate(372,268)"/>
<path d="M0 0 C0.66 0.33 1.32 0.66 2 1 C-2.62 3.64 -7.24 6.28 -12 9 C-12.33 8.34 -12.66 7.68 -13 7 C-13.66 6.67 -14.32 6.34 -15 6 C-12.54524486 4.96971956 -10.08685649 3.95054496 -7.625 2.9375 C-6.57699219 2.49567383 -6.57699219 2.49567383 -5.5078125 2.04492188 C-3.69495092 1.30408902 -1.84876857 0.64603036 0 0 Z " fill="#9A9A9A" transform="translate(296,274)"/>
<path d="M0 0 C4 4.625 4 4.625 4 8 C3.48050781 7.73445312 2.96101563 7.46890625 2.42578125 7.1953125 C-1.33020694 5.29301903 -5.05225879 3.48040295 -9 2 C-6 1 -6 1 -3.9375 1.5625 C-3.298125 1.706875 -2.65875 1.85125 -2 2 C-1.34 1.34 -0.68 0.68 0 0 Z " fill="#767676" transform="translate(388,201)"/>
<path d="M0 0 C3.55780196 0.60990891 6.6828589 1.5783681 10 3 C9.67 3.99 9.34 4.98 9 6 C5.06326356 4.68775452 2.77280706 3.08089673 0 0 Z " fill="#D7D7D7" transform="translate(197,266)"/>
<path d="M0 0 C2.31 0 4.62 0 7 0 C7.33 0.99 7.66 1.98 8 3 C2.25 3.125 2.25 3.125 0 2 C0 1.34 0 0.68 0 0 Z " fill="#3C3C3C" transform="translate(200,265)"/>
<path d="M0 0 C0 0.66 0 1.32 0 2 C-1.65 2.66 -3.3 3.32 -5 4 C-5 3.34 -5 2.68 -5 2 C-6.32 1.67 -7.64 1.34 -9 1 C-5.846632 0.29925156 -3.27275026 0 0 0 Z " fill="#7B7B7B" transform="translate(283,281)"/>
</svg>
